<svg version="1.1" xmlns="http://www.w3.org/2000/svg" xmlns:xlink="http://www.w3.org/1999/xlink" x="0px" y="0px" viewBox="0 0 1580 730" enable-background="new 0 0 1580 730" xml:space="preserve">
<g class="logo" width="100%" height="100%">
	<polygon class="arrow" points="200,200 200,330 328.076,330 195.859,462.217 287.783,554.141 420,421.924 420,530.142 550,530.142 550,530 550,200"/>

	<polygon class="a" points="620,240 711.716,240 625.857,325.857 654.143,354.142 740,268.284 740,330 780,330 780,200 620,200 		"/>
	<polygon class="r" points="820,330 860,330 860,240 911.716,240 871.716,280 945.857,354.142 974.143,325.857 928.284,280 980,228.284 980,200 820,200"/>
	<polygon class="t" points="1020,240 1111.719,240 1050.857,300.857 1079.145,329.142 1180.002,228.284 1180.002,200 1020,200 		"/>
	<polygon class="y" points="1250.859,300.857 1279.145,329.142 1374.145,234.142 1345.859,205.857 1300.002,251.715 1254.145,205.857 1225.859,234.142 1271.717,280"/>

	<polygon class="f" points="620,529.999 660,529.999 660,500 720,500 720,460 660,460 660,440 780,440 780,400 620,400 		"/>
	<polygon class="a" points="820,440 911.716,440 825.857,525.857 854.143,554.142 940,468.284 940,529.999 980,529.999 980,400 820,400 		"/>
	<polygon class="r" points="1020,529.999 1060,529.999 1060,440 1111.719,440 1071.717,479.999 1145.859,554.142 1174.145,525.857 1128.287,479.999 1180.002,428.283 1180.002,400 1020,400"/>
	<polygon class="t" points="1220.002,400 1220.002,440 1311.719,440 1250.861,500.857 1279.145,529.142 1380.002,428.283 1380.002,400 		"/>
</g>
</svg>
