<?xml version="1.0" encoding="utf-8"?>
<!-- Generator: Adobe Illustrator 17.0.1, SVG Export Plug-In . SVG Version: 6.00 Build 0)  -->
<!DOCTYPE svg PUBLIC "-//W3C//DTD SVG 1.1//EN" "http://www.w3.org/Graphics/SVG/1.1/DTD/svg11.dtd">
<svg version="1.1" id="Layer_1" xmlns="http://www.w3.org/2000/svg" xmlns:xlink="http://www.w3.org/1999/xlink" x="0px" y="0px"
	 width="320px" height="36px" viewBox="0 0 320 36" style="enable-background:new 0 0 320 36;" xml:space="preserve">
<style type="text/css">
	.st0{fill:#CC1515;}
	.st1{fill:#111111;}
	.st2{fill:#FFFFFF;}
	.st3{fill:#BCD632;}
	.st4{opacity:0.1;}
	.st5{fill:#01428B;}
	.st6{fill:#A2C632;}
	.st7{opacity:0.1;fill:#111111;}
	.st8{opacity:0.1;fill:#FFFFFF;}
	.st9{fill:#BB9756;}
	.st10{fill:#DEC899;}
	.st11{fill:#7C4E0C;}
	.st12{fill:#1D1D1B;}
</style>
<g>
	<g>
		<path class="st0" d="M0,4.4h8.4l6.2,17.2l6.2-17.2H29L18,31.8h-7L0,4.4z"/>
		<path class="st0" d="M35.6,4.4h7.6v27.2h-7.6V4.4z"/>
		<path class="st0" d="M79.6,18L79.6,18c0-8,6.1-14.2,14.3-14.2c5.5,0,9.1,2.3,11.5,5.7l-5.7,4.4c-1.6-1.9-3.3-3.2-5.9-3.2
			c-3.8,0-6.5,3.2-6.5,7.2V18c0,4.1,2.7,7.3,6.5,7.3c2.8,0,4.5-1.3,6.1-3.3l5.7,4c-2.6,3.5-6,6.1-12,6.1
			C85.9,32.1,79.6,26.2,79.6,18z"/>
	</g>
	<g>
		<path d="M68.3,0h6L57.1,36h-6L68.3,0z"/>
		<path d="M127.9,32.2c-6,0-9.5-2.6-12-6.1l5.7-4c1.6,2,3.3,3.3,6.1,3.3c3.8,0,6.5-3.2,6.5-7.3v-0.1c0-4-2.7-7.2-6.5-7.2
			c-2.6,0-4.4,1.2-5.9,3.2L116,9.5c2.4-3.3,6-5.7,11.5-5.7c8.2,0,14.3,6.2,14.3,14.2v0.1C141.9,26.2,135.6,32.2,127.9,32.2z"/>
		<path d="M151.6,4.4h8l6.5,10.5l6.5-10.5h8v27.2H173V15.9L166,26.6h-0.2L158.9,16v15.6h-7.4V4.4z"/>
		<path d="M191.5,4.4h11.6c6.9,0,11.3,3.5,11.3,9.6V14c0,6.4-4.9,9.8-11.7,9.8H199v7.8h-7.5V4.4z M202.6,17.9c2.7,0,4.3-1.4,4.3-3.5
			v-0.1c0-2.3-1.6-3.6-4.3-3.6H199v7.2H202.6z"/>
		<path d="M230,4.2h7.3l11.6,27.4h-8.1l-2-4.9h-10.5l-1.9,4.9h-7.9L230,4.2z M236.6,20.8l-3-7.7l-3.1,7.7H236.6z"/>
		<path d="M257.3,4.4h7l11.2,14.4V4.4h7.5v27.2h-6.6l-11.6-14.9v14.9h-7.5V4.4z"/>
		<path d="M302.1,21.4l-10.3-17h8.6l5.6,9.9l5.6-9.9h8.4l-10.3,16.9v10.3h-7.6V21.4z"/>
	</g>
</g>
</svg>
