<?xml version="1.0" encoding="utf-8"?>
<!-- Generator: Adobe Illustrator 16.0.4, SVG Export Plug-In . SVG Version: 6.00 Build 0)  -->
<!DOCTYPE svg PUBLIC "-//W3C//DTD SVG 1.1//EN" "http://www.w3.org/Graphics/SVG/1.1/DTD/svg11.dtd">
<svg version="1.1" xmlns="http://www.w3.org/2000/svg" xmlns:xlink="http://www.w3.org/1999/xlink" x="0px" y="0px"
	 width="153.335px" height="311.483px" viewBox="0 0 153.335 311.483" enable-background="new 0 0 153.335 311.483"
	 xml:space="preserve">
<g id="Layer_1">
</g>
<g id="Layer_2">
</g>
<g id="Layer_3">
	<g>
		<path fill="#4F5150" d="M8.599,22.885c-2.001,1.678-3.528,3.809-4.333,6.66C3.548,32.083,2.9,34.65,2.422,37.24
			c-0.346,1.876-0.53,3.811,0.558,5.606c1.923-5.724,5.051-11,9.209-15.077c0.025-0.342,0.082-0.684,0.196-1.025
			c-0.114,0.342-0.171,0.684-0.196,1.025c0.203-0.199,0.396-0.41,0.604-0.603C11.752,25.481,10.365,23.996,8.599,22.885z"/>
		<path fill="#FFFFFF" d="M32.385,14.744c0-0.215-0.104-0.43-0.249-0.645c-0.039,0.013-0.068,0.033-0.108,0.044
			c-6.06,1.631-12.142,3.161-17.977,5.555c-2.056,0.844-3.895,1.881-5.453,3.188c1.767,1.111,3.153,2.596,4.194,4.282
			c5.33-4.951,12.285-7.942,20.592-7.423c0.205,0,0.361,0,0.499,0C33.66,18.005,33.307,16.28,32.385,14.744z"/>
		<path fill="#302D2F" d="M13.385,26.628c-4.768,4.204-8.3,9.951-10.405,16.218c0.114,0.188,0.229,0.376,0.373,0.562
			c1.128-0.461,1.551-1.595,2.294-2.418c2.199-2.438,4.092-5.337,7.108-6.762c0.208-0.098,0.42-0.183,0.63-0.277
			c0-2.349,0-4.561,0-7.206C13.385,26.705,13.385,26.668,13.385,26.628z"/>
		<path fill="#E5E5E5" d="M36.112,27.964c-0.146-0.175-0.283-0.354-0.407-0.54c-0.158-0.185-0.298-0.375-0.354-0.569
			c-1.09-2.051-1.142-4.597-1.466-7.112c-0.138,0-0.294,0-0.499,0c-8.003-0.5-14.75,2.256-20,6.884c0,0.04,0,0.076,0,0.116
			c0,2.646,0,4.857,0,7.206c5.166-2.335,10.681-3.571,16.326-4.261c2.198-0.269,4.363-0.812,6.639-1.248
			C36.241,28.232,36.173,28.084,36.112,27.964z"/>
		<path fill="#FAA7CF" d="M33.77,19c0.039,0.248,0.082,0.495,0.114,0.744c0.403,0,0.601,0,1.012,0
			C34.52,19.498,34.145,19.25,33.77,19z"/>
		<path fill="#FAA7CF" d="M134.906,125.417c-1.792-4.844-4.942-8.935-7.905-13.089c-2.642-3.702-5.573-7.195-8.402-10.758
			c-3.934-4.952-8.933-8.202-14.608-10.555c-3.167-1.312-6.544-1.86-9.996-2.149c-4.03-0.337-8.015-0.974-12.063-0.141
			c-4.535,0.932-8.939,2.02-13.138,4.205c-7.069,3.679-13.067,8.39-17.309,15.208c-1.919,3.086-5.483,2.88-7.326-0.239
			c-1.249-2.114-1.603-4.36-1.793-6.714c-0.28-3.472-1.015-6.94-0.433-10.427c0.827-4.954,2.816-9.458,5.111-13.929
			c3.053-5.948,7.006-11.293,10.668-16.814c2.365-3.565,5.172-6.919,7.09-10.72c3.381-6.697,6.365-13.602,7.604-21.117
			c0.71-4.309,0.92-8.485-1.055-12.587c-1.996-4.146-4.116-8.075-8.304-10.523C55.911,0.896,48.63,0.199,41.175,3.979
			c-3.168,1.606-5.479,4.171-7.154,7.352c-0.506,0.96-0.615,2.347-1.885,2.769c0.145,0.215,0.249,0.43,0.249,0.645
			c0.79,1.316,1.153,2.772,1.385,4.256c0.375,0.25,0.75,0.498,1.126,0.744c0.135,0,0.293,0,0.489,0c-0.196,0-0.354,0-0.489,0
			c5.503,3.613,11.076,6.665,17.489,3c3-2,8-9,11-5c7.021,7.02,5.163,17.484-1.062,24.139c-1.36,2.85-2.644,5.731-4.581,8.334
			c-1.292,1.736-2.447,3.766-3.766,5.471c-1.872,2.421-3.478,5.021-5.225,7.503c-3.104,4.407-5.887,9.046-8.571,13.742
			c-2.065,3.613-4.168,7.21-5.33,11.191c-1.302,4.457-2.41,8.993-2.883,13.638c-0.417,4.091-1.078,8.247,0.184,12.253
			c0.915,2.906,2.335,5.65,3.684,8.411c1.917,3.923,4.037,7.646,7.482,10.401c1.704,1.363,3.632,2.447,5.806,3.889
			c-1.259-2.537-3.119-4.196-3.698-6.585c-0.127-0.521-0.272-0.999,0.245-1.324c0.486-0.306,0.912,0.021,1.229,0.352
			c0.315,0.328,0.569,0.731,0.789,1.135c1.484,2.72,3.159,5.207,5.5,7.378c4.182,3.88,8.745,7.052,13.932,9.387
			c4.143,1.864,8.619,2.402,13.014,3.025c4.316,0.612,8.729,0.64,13.104,0.7c1.691,0.023,3.481-0.1,4.894-0.735
			c-6.47-18.373-20.356-29.474-36.961-37.847c0.085-0.195,0.184-0.355,0.288-0.496c-0.024,0.014-0.049,0.026-0.072,0.04
			c0.023-0.014,0.048-0.026,0.072-0.04c0.267-0.361,0.591-0.531,0.948-0.523c11.769-6.53,25.288-8.325,35.979-4.437
			c13.679,5.471,23.2,16.763,33.113,27.81c2.285,0.985,4.251,2.079,5.716,3.282C137.014,133.564,136.376,129.39,134.906,125.417z
			 M46.412,16.497c-1.274,0.013-2.21-0.737-2.068-1.999c0.153-1.373,0.886-2.621,2.553-2.634c1.185-0.01,1.939,0.646,2.026,1.271
			C48.979,15.482,48.162,16.48,46.412,16.497z"/>
		<path fill="#E994B8" d="M98.385,106.744c-10.691-3.888-24.211-2.093-35.979,4.437c0.116,0.002,0.234,0.006,0.357,0.049
			c1.921,0.67,3.979,1.168,5.669,2.233c3.414,2.151,6.617,4.636,9.913,6.974c1.045,0.741,2.197,1.356,3.146,2.202
			c1.521,1.354,2.926,2.843,4.36,4.294c1.059,1.071,2.086,2.173,3.115,3.247c3.915-3.354,29.013-1.452,42.531,4.373
			C121.585,123.507,112.064,112.215,98.385,106.744z"/>
		<path fill="#E994B8" d="M63.385,17.744c-3-4-8,3-11,5c-6.413,3.665-11.986,0.613-17.489-3c-0.411,0-0.608,0-1.012,0
			c0.324,2.515,0.376,5.061,1.466,7.112c-0.072-0.244-0.01-0.493,0.36-0.747c0.682-0.468,1.465-0.255,2.049,0.4
			c2.408,2.7,5.472,4.144,8.997,3.439c4.696-0.939,7.983-4.159,10.841-7.831c0.358-0.46,0.345-1.4,1.176-1.293
			c0.869,0.112,0.89,1.027,1.193,1.781c3.411,0.27,4.66,2.92,5.256,5.645c0.895,4.09-0.109,8.068-1.99,11.777
			c-0.312,0.615-0.611,1.235-0.908,1.856C68.548,35.229,70.406,24.764,63.385,17.744z"/>
		<path fill="#FAA7CF" d="M35.977,27.743c-0.084-0.104-0.18-0.211-0.272-0.318c0.124,0.186,0.262,0.364,0.407,0.54
			C36.068,27.878,36.027,27.805,35.977,27.743z"/>
		<path fill="#F6DBB8" d="M123.7,181.882c-0.927-1.781-1.909-3.567-3.113-5.166c-2.956-3.924-6.227-7.62-9.052-11.633
			c-3.582-5.088-6.38-10.613-8.373-16.557c-0.773-2.308-0.913-4.639-1.026-7.154c-1.624,0.45-3.154,1.062-4.709,1.573
			c1.406,2.865,2.699,5.811,4.135,8.752c-2.917,0.528-5.52,1-8.07,1.463c0.631,1.196,2.037,1.034,3.088,1.582
			c4.622,2.409,8.021,6.245,11.249,10.153c2.771,3.356,5.693,6.589,8.351,10.054c1.667,2.173,2.165,4.299,1.765,6.826
			c-0.51,3.22-1.262,4.055-4.406,4.721c-2.895,0.613-5.826,0.723-8.783,0.896c-5.003,0.291-9.993,1.176-14.933,2.107
			c-7.478,1.41-15.052,1.216-22.584,1.705c-2.315,0.15-4.506-0.57-6.729-1.029c-1.12-0.231-5.036,1.104-5.317,2.104
			c-0.719,2.565-2.522,4.526-3.726,6.802c-1.729,3.267-2.937,6.671-4.146,10.104c-0.231,0.657-0.574,1.504,0.128,2.204
			c0.85-0.201,1.221-0.905,1.738-1.445c0.616-0.644,1.44-0.901,2.289-0.95c0.45-0.027,0.806,0.378,0.842,0.841
			c0.231,2.952,0.564,5.905,0.595,8.861c0.021,2.003,0.238,3.373,1.197,3.717c0.428-1.895,0.019-3.787,0.055-5.666
			c0.11-5.742,0.664-11.458,2.479-16.966c1.14-3.463,3.719-5.775,7.299-6.005c3.043-0.195,6.207-0.585,9.254-1.338
			c2.303-0.568,4.704-1.224,7.039-0.817c2.519,0.438,4.946-0.356,7.518,0.08c2.091,0.355,4.502-0.104,6.764-0.286
			c3.58-0.288,7.144-0.791,10.725-1.04c4.921-0.343,9.984,0.187,14.425-2.695c0.411-0.267,0.815-0.644,1.269-0.729
			C123.139,186.538,124.712,183.831,123.7,181.882z"/>
		<path fill="#F8E7CB" d="M122.699,179.88c-0.927-1.781-1.909-3.567-3.113-5.166c-2.956-3.924-6.227-7.62-9.052-11.633
			c-3.582-5.088-6.38-10.613-8.373-16.557c-0.773-2.308-0.913-4.639-1.026-7.154c-1.624,0.45-3.154,1.062-4.709,1.573
			c1.406,2.865,2.699,5.811,4.135,8.752c-2.917,0.528-5.52,1-8.07,1.463c0.631,1.196,2.037,1.034,3.088,1.582
			c4.622,2.409,8.021,6.245,11.249,10.153c2.771,3.356,5.693,6.589,8.351,10.054c1.667,2.173,2.165,4.299,1.765,6.826
			c-0.51,3.22-1.262,4.055-4.406,4.721c-2.895,0.613-5.826,0.723-8.783,0.896c-5.003,0.291-9.993,1.176-14.933,2.107
			c-7.478,1.41-15.052,1.216-22.584,1.705c-2.315,0.15-4.506-0.57-6.729-1.029c-1.12-0.231-5.036,1.104-5.317,2.104
			c-0.719,2.565-2.522,4.526-3.726,6.802c-1.729,3.267-2.937,6.671-4.146,10.104c-0.231,0.657-0.574,1.504,0.128,2.204
			c0.85-0.201,1.221-0.905,1.738-1.445c0.616-0.644,1.44-0.901,2.289-0.95c0.45-0.027,0.806,0.378,0.842,0.841
			c0.231,2.952,0.564,5.905,0.595,8.861c0.021,2.003,0.238,3.373,1.197,3.717c0.428-1.895,0.019-3.787,0.055-5.666
			c0.11-5.742,0.664-11.458,2.479-16.966c1.14-3.463,3.719-5.775,7.299-6.005c3.043-0.195,6.207-0.585,9.254-1.338
			c2.303-0.568,4.704-1.224,7.039-0.817c2.519,0.438,4.946-0.356,7.518,0.08c2.091,0.355,4.502-0.104,6.764-0.286
			c3.58-0.288,7.144-0.791,10.725-1.04c4.921-0.343,9.984,0.187,14.425-2.695c0.411-0.267,0.815-0.644,1.269-0.729
			C122.138,184.536,123.711,181.829,122.699,179.88z"/>
		<path fill="#F6DBB8" d="M86.539,197.145c0.064-1.134,0.42-2.282-0.021-3.409c-0.864-0.443-1.672-0.366-2.461,0.064
			c-0.061,0.99-0.158,1.938-0.168,2.888c-0.031,3.181-0.163,18.38,0.008,21.551c0.097,1.782-0.504,2.46-2.297,2.406
			c-0.426,0.843-1.104,1.627-1.203,2.479c-0.46,3.933-0.133,7.739,2.573,10.945c0.518,0.613,0.689,1.311,0.534,2.038
			c-0.81,3.787-0.6,7.636-0.668,11.458c-0.097,5.467-0.461,9.923-0.428,15.399c0.026,4.484-0.551,8.972-0.817,13.46
			c-0.25,4.198-0.439,15.407-0.663,19.607c-0.224,4.19-2.413,5.421-6.599,5.959c-1.75,0.225-3.434-0.027-5.229,0.507
			c1.322,1.418,1.456,2.484,0.434,2.859c-2.034,0.747-4.105,0.391-6.142,1.134c-1.558,0.567-3.083,1.22-4.646,1.845
			c0.282,0.56,0.685,0.498,1.079,0.535c1.899,0.177,3.629,0.156,5.436,0.112c6.52-0.158,12.955,1.007,19.364-0.073
			c0.971-0.163,2.659,0.098,2.586-1.592c-0.078-1.776-0.283-3.563-1.52-5.109c-0.721-0.901-1.402-1.893-1.646-3.186
			c-0.409-2.171-0.2-4.216,0.054-6.395c0.812-6.969,1.028-20.999,1.122-28.019c0.058-4.328,0.408-8.646,0.309-12.984
			c-0.054-2.33,0.287-3.662,0.177-6.023c-0.103-2.188,0.467-4.421,0.253-6.586c-0.253-2.561-0.205-4.971,0.898-7.319
			c2.322-4.939,3.097-9.974,1.03-15.231C86.971,214.132,86.394,199.697,86.539,197.145z"/>
		<path fill="#F6DBB8" d="M84.213,169.659c0.291,4.412,0.198,8.818-0.01,13.229c-0.078,1.655-0.013,3.317-0.013,5.132
			c1.25-0.315,2.246-0.034,2.923-0.885c-0.158-1.001-0.445-1.923-0.336-2.945c0.217-2.031,0.421-4.087,0.349-6.122
			c-0.213-6.033-0.102-11.979,2.179-17.727c0.882-2.222,2.109-4.481,1.459-7.292c-4.729-0.978-9.576,0.13-14.4-1.562
			c2.421,4.454,4.623,8.617,6.306,13.029C83.308,166.194,84.091,167.812,84.213,169.659z"/>
		<path fill="#E994B8" d="M102.082,140.191c5.207-1.209,9.718-4.155,14.431-7.555c-8.931-1.6-17.432-2.901-26.367-1.023
			c3.124,3.464,5.313,7.319,7.281,11.332c1.555-0.511,3.085-1.123,4.709-1.573C102.118,140.983,102.1,140.59,102.082,140.191z"/>
		<path fill="#F8E7CB" d="M84.537,197.145c0.064-1.134,0.42-2.282-0.021-3.409c-0.864-0.443-1.672-0.366-2.461,0.064
			c-0.061,0.99-0.158,1.938-0.168,2.888c-0.031,3.181-0.163,18.38,0.008,21.551c0.097,1.782-0.504,2.46-2.297,2.406
			c-0.426,0.843-1.104,1.627-1.203,2.479c-0.46,3.933-0.133,7.739,2.573,10.945c0.518,0.613,0.689,1.311,0.534,2.038
			c-0.81,3.787-0.6,7.636-0.668,11.458c-0.097,5.467-0.461,9.923-0.428,15.399c0.026,4.484-0.551,8.972-0.817,13.46
			c-0.25,4.198-0.439,15.407-0.663,19.607c-0.224,4.19-2.413,4.42-6.599,4.958c-1.75,0.225-3.434,0.974-5.229,1.508
			c1.322,1.418,1.456,2.484,0.434,2.859c-2.034,0.747-4.105,0.391-6.142,1.134c-1.558,0.567-3.083,1.22-4.646,1.845
			c0.282,0.56,0.685,0.498,1.079,0.535c1.899,0.177,3.629-0.845,5.436-0.889c6.52-0.158,12.955,2.008,19.364,0.928
			c0.971-0.163,2.659,0.098,2.586-1.592c-0.078-1.776-0.283-3.563-1.52-5.109c-0.721-0.901-1.402-1.893-1.646-3.186
			c-0.409-2.171-0.2-4.216,0.054-6.395c0.812-6.969,1.028-20.999,1.122-28.019c0.058-4.328,0.408-8.646,0.309-12.984
			c-0.054-2.33,0.287-3.662,0.177-6.023c-0.103-2.188,0.467-4.421,0.253-6.586c-0.253-2.561-0.205-4.971,0.898-7.319
			c2.322-4.939,3.097-9.974,1.03-15.231C84.969,214.132,84.392,199.697,84.537,197.145z"/>
		<path fill="#F8E7CB" d="M82.211,169.659c0.291,4.412,0.198,8.818-0.01,13.229c-0.078,1.655-0.013,3.317-0.013,5.132
			c1.25-0.315,2.246-0.034,2.923-0.885c-0.158-1.001-0.445-1.923-0.336-2.945c0.217-2.031,0.421-4.087,0.349-6.122
			c-0.213-6.033-0.102-11.979,2.179-17.727c0.882-2.222,2.109-4.481,1.459-7.292c-4.729-0.978-9.576,0.13-14.4-1.562
			c2.421,4.454,4.623,8.617,6.306,13.029C81.306,166.194,82.089,167.812,82.211,169.659z"/>
		<path fill="#E994B8" d="M120.118,99.96c1.531,2.617,3.376,4.186,4.737,6.148c2.663,3.835,5.723,7.394,7.977,11.515
			c0.215,0.392,0.328,0.901,0.896,0.97c4.312,0.525,7.464,3.271,10.775,5.683c1.635,1.189,3.288,2.387,4.619,3.946
			C141.699,116.79,133.223,106.448,120.118,99.96z"/>
		<path d="M47.349,7.958c-4.479,0.037-6.445,3.388-6.857,7.077c-0.379,3.388,2.134,5.402,5.557,5.369
			c4.7-0.046,6.897-2.727,6.744-9.029C52.56,9.692,50.532,7.932,47.349,7.958z"/>
		<circle fill="#FFFFFF" cx="48.668" cy="11.976" r="2.205"/>
		<path fill="#FFFFFF" d="M45.952,16.946c0,0.787-0.64,1.426-1.424,1.426c-0.789,0-1.428-0.639-1.428-1.426
			c0-0.786,0.639-1.424,1.428-1.424C45.312,15.521,45.952,16.16,45.952,16.946z"/>
		<path d="M153.138,132.696c-0.188-0.417-0.523-0.792-0.614-1.225c-0.601-2.84-1.961-5.343-3.539-7.708
			c-2.111-3.165-4.608-6.037-7.069-8.938c-6.272-7.393-13.387-13.643-22.595-17.156c-0.43-0.165-0.899-0.316-1.243-0.603
			c-3.737-3.111-8.019-5.341-12.386-7.349c-4.057-1.865-8.476-2.532-12.897-2.998c-5.591-0.589-11.085-0.711-16.635,0.934
			c-4.612,1.367-8.738,3.518-12.825,5.89c-5.426,3.149-9.747,7.437-13.118,12.704c-0.601,0.938-1.024,2.16-2.376,2.104
			c-1.247-0.051-1.632-1.254-2.123-2.146c-1.369-2.48-0.873-5.331-1.453-7.953c-1.331-6.015,0.419-11.504,2.701-16.826
			c2.466-5.751,5.87-11.019,9.462-16.147c2.307-3.293,4.625-6.58,6.872-9.914c1.4-2.078,2.869-4.121,3.901-6.43
			c1.544-3.456,2.86-7.012,4.314-10.487c1.589-3.798,2.251-7.713,2.996-11.626c0.827-4.336-0.01-8.538-1.76-12.664
			C70.135,7.989,65.638,3.8,59.523,1.629c-5.224-1.854-10.693-2.322-16.17-0.371c-3.652,1.301-6.583,3.418-9.114,6.324
			c-1.832,2.103-2.607,5.382-6.087,5.79c-0.675,0.079-1.33,0.343-1.991,0.529c-4.357,1.229-8.641,2.642-12.876,4.276
			c-5.028,1.94-8.648,5.05-10.78,10.049c-1.074,2.519-1.041,5.236-1.917,7.757c-0.718,2.066-0.741,4.133-0.263,6.251
			c0.639,2.834,2.083,3.857,4.398,2.895c1.119-0.465,1.673-1.639,2.367-2.553c1.622-2.136,3.367-4.173,5.407-5.874
			c3.156-2.629,7.224-3.162,11.018-4.265c3.369-0.98,6.908-1.054,10.342-1.791c2.771-0.594,5.634-0.838,8.445,0.735
			c1.807,1.012,4.18,0.832,6.125,0.142c3.961-1.404,7.348-3.811,10.101-7.025c0.642-0.749,1.147-0.551,1.872-0.13
			c2.447,1.42,2.75,3.917,2.934,6.262c0.465,5.954-2.62,10.895-5.338,15.757c-2.271,4.064-5.112,7.839-7.858,11.644
			c-4.329,5.995-8.224,12.284-11.801,18.771c-1.209,2.191-2.767,4.217-3.686,6.551c-2.847,7.226-4.476,14.761-4.975,22.493
			c-0.17,2.639-0.885,5.363,0.326,8.022c0.998,2.193,1.65,4.546,2.678,6.723c1.474,3.122,2.833,6.374,4.815,9.163
			c3.254,4.58,7.568,7.992,13.095,9.653c0.85,0.255,1.768,0.108,2.564,0.917c1.331,1.351,2.92,2.456,4.442,3.609
			c4.512,3.418,9.526,5.787,15.04,7.085c0.382,0.09,0.638,0.275,0.848,0.611c2.239,3.579,4.357,7.231,5.997,11.125
			c1.196,2.843,2.604,5.645,2.591,8.858c-0.019,4.727,0.006,9.452-0.022,14.179c-0.005,0.834,0.202,1.717-0.262,2.482
			c-3.161,0.55-6.326,0.173-9.432,0.532c-3.669,0.425-7.316,0.318-10.896-0.36c-2.729-0.518-4.911,0.332-7.065,1.707
			c-1.689,1.078-1.907,3.086-2.892,4.592c-2.684,4.104-4.268,8.691-6.254,13.105c-0.913,2.028,0.032,3.863,0.386,5.756
			c0.093,0.495,0.623,0.677,1.292,0.517c1.257-0.3,2.238-1.03,3.469-2.12c-0.223,2.723,0.418,4.979,0.465,7.281
			c0.031,1.55-0.053,3.104,1.033,4.36c0.711,0.823,1.548,1.646,2.747,1.473c1.258-0.182,1.586-1.235,1.769-2.332
			c0.334-1.998,0.102-3.974-0.055-5.976c-0.348-4.456,0.601-8.826,1.261-13.198c0.534-3.537,2.791-7.158,7.459-7.805
			c3.128-0.434,6.324-0.523,9.408-1.354c2.28-0.613,4.625-0.809,7.161-0.722c0,2.833,0.029,17.549-0.01,20.251
			c-0.029,2.02,0.51,4.305-2.15,5.271c-0.103,0.037-0.173,0.198-0.231,0.315c-1.344,2.712-1.721,5.638-1.375,8.563
			c0.282,2.381,1.333,4.609,2.414,6.763c0.296,0.589,0.701,1.101,0.618,1.811c-0.146,1.257-0.365,2.513-0.397,3.773
			c-0.111,4.281,0.035,7.576-0.272,11.841c-0.389,5.367-0.149,10.743-0.659,16.113c-0.654,6.894-0.864,20.836-1.347,27.748
			c-0.082,1.168,0.106,1.66-1.481,2.162c-2.865,0.904-5.72,0.855-8.625,1.61c-1.011,0.263-1.871,0.414-2.604,0.635
			c-0.929,0.615-1.227,1.89,0.032,2.475c0.475,0.22,0.212,0.921-0.252,0.932c-0.321,0.008-0.634-0.004-0.947-0.014
			c-0.059,0.074-0.138,0.138-0.253,0.163c-1.438,0.318-3.027,0.521-4.509,0.947c-0.965,0.411-1.915,0.866-2.86,1.34
			c-2.113,1.604-1.4,3.436,0.248,4.571c1.958,0.112,3.917,0.339,5.873,0.002c1.53-0.264,3.053,0.046,4.56,0.098
			c6.111,0.21,12.021,0.713,18.023,0.052c1.357-0.149,3.147-0.43,3.818-1.903c0.997-2.19,0.485-4.606,0.468-6.931
			c-0.01-1.341-1.324-2.104-1.7-3.261c-0.413-0.537-0.804-1.071-1.075-1.648c-0.698-0.696-0.754-1.798-0.662-3.072
			c0.288-3.994,0.557-15.007,0.896-18.985c0.36-4.221,0.054-8.412,0.27-12.615c0.345-6.74,0.385-12.497,0.411-19.249
			c0.008-1.754,0.984-3.484,0.306-5.188c-0.967-2.426,0.211-4.593,1.078-6.484c2.431-5.304,2.86-10.523,0.859-15.986
			c-1.174-3.207-1.45-18.523-0.9-22.017c0.938-0.139,1.839-0.351,2.747-0.392c3.098-0.139,6.27,0.163,9.28-0.405
			c5.072-0.958,10.288-0.188,15.297-1.599c4.034-1.138,7.758-2.646,9.666-6.771c0.513-1.107,0.508-2.306-0.056-3.345
			c-1.069-1.968-2.191-3.922-3.462-5.765c-3.822-5.545-8.604-10.365-12.003-16.254c-2.925-5.066-5.522-10.207-6.602-16.006
			c-0.12-0.646-0.195-1.337,0.568-1.605c5.226-1.835,9.89-4.633,14.129-8.167c0.404-0.337,0.802-0.307,1.289-0.216
			c3.162,0.588,6.27,1.22,9.274,2.538c2.779,1.22,5.465,2.456,7.533,4.704c0.531,0.578,0.967,1.024,1.729,0.709
			c0.751-0.312,0.92-1.078,0.859-1.753c-0.19-2.134-0.457-4.262-0.748-6.384c-0.552-4.035-1.476-7.979-3.358-12.094
			c0.835,0.291,1.257,0.376,1.618,0.574c4.229,2.311,8.11,5.093,11.421,8.619c1.034,1.102,2.33,2.016,2.929,3.456
			c0.308,0.739,0.726,1.083,1.413,0.753C153.463,134.061,153.437,133.364,153.138,132.696z M76.364,151.487
			c4.824,1.692,9.671,0.585,14.4,1.562c0.65,2.811-0.577,5.07-1.459,7.292c-2.28,5.747-2.392,11.693-2.179,17.727
			c0.072,2.035-0.132,4.091-0.349,6.122c-0.109,1.022,0.178,1.944,0.336,2.945c-0.677,0.851-1.673,0.569-2.923,0.885
			c0-1.814-0.065-3.477,0.013-5.132c0.208-4.411,0.301-8.817,0.01-13.229c-0.122-1.848-0.905-3.465-1.544-5.143
			C80.987,160.104,78.785,155.941,76.364,151.487z M90.945,162.001c0.752-1.795,1.615-3.592,1.794-5.503
			c5.885,0.268,8.619,4.91,12.181,8.305c2.819,2.686,5.009,5.947,7.581,8.869c1.738,1.975,3.482,4.311,3.589,7.244
			c-0.138,0.334-0.354,0.677-0.418,1.046c-0.305,1.764-1.531,2.03-3.041,2.06c-0.723,0.014-1.428,0.45-2.159,0.536
			c-4.18,0.496-8.366,0.935-12.549,1.411c-3.036,0.347-5.992,1.275-8.966,1.266c0.202-3.549,0.296-7.067,0.268-10.611
			C89.184,171.708,88.96,166.737,90.945,162.001z M86.859,231.696c-1.104,2.349-1.151,4.759-0.898,7.319
			c0.214,2.165-0.355,4.398-0.253,6.586c0.11,2.361-0.23,3.693-0.177,6.023c0.1,4.339-0.251,8.656-0.309,12.984
			c-0.094,7.02-0.31,21.05-1.122,28.019c-0.254,2.179-0.463,4.224-0.054,6.395c0.243,1.293,0.925,2.284,1.646,3.186
			c1.236,1.546,1.441,3.333,1.52,5.109c0.073,1.689-1.615,1.429-2.586,1.592c-6.409,1.08-12.845-0.085-19.364,0.073
			c-1.807,0.044-3.536,0.064-5.436-0.112c-0.395-0.037-0.797,0.024-1.079-0.535c1.563-0.625,3.089-1.277,4.646-1.845
			c2.036-0.743,4.107-0.387,6.142-1.134c0.187-0.068,0.322-0.167,0.431-0.28c0.726-0.196,1.446-0.427,2.18-0.619
			c0.599-0.157,0.305-1.015-0.263-0.946c-0.084-0.152-0.232-0.271-0.449-0.273c-0.597-0.005-1.193-0.043-1.789-0.078
			c-0.151-0.211-0.327-0.431-0.543-0.664c1.795-0.534,3.479-0.282,5.229-0.507c4.186-0.538,6.375-1.769,6.599-5.959
			c0.224-4.2,0.413-15.409,0.663-19.607c0.267-4.488,0.844-8.976,0.817-13.46c-0.033-5.477,0.331-9.933,0.428-15.399
			c0.068-3.822-0.142-7.671,0.668-11.458c0.155-0.728-0.017-1.425-0.534-2.038c-2.706-3.206-3.033-7.013-2.573-10.945
			c0.1-0.852,0.777-1.636,1.203-2.479c1.793,0.054,2.394-0.624,2.297-2.406c-0.171-3.171-0.039-18.37-0.008-21.551
			c0.01-0.949,0.107-1.897,0.168-2.888c0.789-0.431,1.597-0.508,2.461-0.064c0.44,1.127,0.085,2.275,0.021,3.409
			c-0.145,2.553,0.433,16.987,1.351,19.32C89.956,221.723,89.181,226.757,86.859,231.696z M111.535,165.083
			c2.825,4.013,6.096,7.709,9.052,11.633c1.204,1.599,2.187,3.385,3.113,5.166c1.013,1.949-0.561,4.656-2.768,5.069
			c-0.453,0.085-0.857,0.462-1.269,0.729c-4.44,2.882-9.504,2.353-14.425,2.695c-3.581,0.249-7.145,0.752-10.725,1.04
			c-2.262,0.183-4.673,0.642-6.764,0.286c-2.571-0.437-4.999,0.358-7.518-0.08c-2.335-0.406-4.736,0.249-7.039,0.817
			c-3.047,0.753-6.211,1.143-9.254,1.338c-3.58,0.229-6.159,2.542-7.299,6.005c-1.814,5.508-2.368,11.224-2.479,16.966
			c-0.036,1.879,0.373,3.771-0.055,5.666c-0.959-0.344-1.176-1.714-1.197-3.717c-0.03-2.956-0.363-5.909-0.595-8.861
			c-0.036-0.463-0.392-0.868-0.842-0.841c-0.849,0.049-1.673,0.307-2.289,0.95c-0.518,0.54-0.889,1.244-1.738,1.445
			c-0.702-0.7-0.359-1.547-0.128-2.204c1.209-3.434,2.417-6.838,4.146-10.104c1.203-2.275,3.007-4.236,3.726-6.802
			c0.281-1.001,4.197-2.336,5.317-2.104c2.224,0.459,4.414,1.18,6.729,1.029c7.532-0.489,15.106-0.295,22.584-1.705
			c4.939-0.932,9.93-1.816,14.933-2.107c2.957-0.173,5.889-0.282,8.783-0.896c3.145-0.666,3.896-1.501,4.406-4.721
			c0.4-2.527-0.098-4.653-1.765-6.826c-2.657-3.465-5.579-6.697-8.351-10.054c-3.229-3.908-6.627-7.744-11.249-10.153
			c-1.051-0.548-2.457-0.386-3.088-1.582c2.551-0.463,5.153-0.935,8.07-1.463c-1.286-2.636-2.459-5.273-3.7-7.854
			c0.464-0.127,0.92-0.282,1.381-0.44c0.976-0.335,1.979-0.376,2.981-0.49c0.119,1.938,0.325,3.786,0.938,5.614
			C105.155,154.47,107.953,159.995,111.535,165.083z M102.216,140.154c-0.597,0.075-1.133,0.3-1.727,0.502
			c-0.807,0.273-1.943,0.499-2.787,0.56c-0.336,0.024-0.714,0.079-1.039,0.205c-1.777-3.463-3.792-6.784-6.519-9.808
			c8.936-1.878,17.437-0.576,26.367,1.023C111.84,136.006,107.366,138.926,102.216,140.154z M137.214,137.836
			c-10.126-8.319-43.67-11.577-48.247-7.655c-1.029-1.074-2.057-2.176-3.115-3.247c-1.435-1.451-2.839-2.939-4.36-4.294
			c-0.949-0.846-2.102-1.461-3.146-2.202c-3.296-2.338-6.499-4.823-9.913-6.974c-1.689-1.065-3.748-1.562-5.669-2.233
			c-0.647-0.226-1.218,0.111-1.594,0.97c16.604,8.373,30.491,19.474,36.961,37.847c-1.412,0.636-3.202,0.759-4.894,0.735
			c-4.374-0.061-8.787-0.088-13.104-0.7c-4.395-0.623-8.871-1.161-13.014-3.025c-5.187-2.335-9.75-5.507-13.932-9.387
			c-2.341-2.171-4.016-4.658-5.5-7.378c-0.22-0.403-0.474-0.807-0.789-1.135c-0.316-0.33-0.742-0.657-1.229-0.352
			c-0.518,0.325-0.372,0.803-0.245,1.324c0.579,2.389,2.439,4.048,3.698,6.585c-2.174-1.441-4.102-2.525-5.806-3.889
			c-3.445-2.755-5.565-6.478-7.482-10.401c-1.349-2.761-2.769-5.504-3.684-8.411c-1.262-4.006-0.6-8.162-0.184-12.253
			c0.473-4.645,1.581-9.181,2.883-13.638c1.162-3.981,3.265-7.579,5.33-11.191c2.685-4.695,5.468-9.335,8.571-13.742
			c1.747-2.482,3.353-5.082,5.225-7.503c1.318-1.705,2.474-3.734,3.766-5.471c2.359-3.17,3.747-6.754,5.489-10.19
			c1.881-3.708,2.885-7.687,1.99-11.777c-0.596-2.724-1.845-5.375-5.256-5.645c-0.304-0.754-0.324-1.669-1.193-1.781
			c-0.831-0.107-0.817,0.833-1.176,1.293c-2.857,3.672-6.145,6.892-10.841,7.831c-3.525,0.705-6.589-0.739-8.997-3.439
			c-0.584-0.655-1.367-0.868-2.049-0.4c-0.837,0.573-0.144,1.127,0.267,1.634c0.119,0.147,0.185,0.338,0.373,0.699
			c-2.275,0.436-4.44,0.979-6.639,1.248c-5.874,0.717-11.611,2.014-16.956,4.538c-3.017,1.425-4.909,4.324-7.108,6.762
			c-0.743,0.823-1.166,1.957-2.294,2.418C1.839,41.46,2.04,39.313,2.422,37.24c0.478-2.59,1.126-5.158,1.843-7.695
			c1.432-5.071,5.089-7.92,9.786-9.848c5.834-2.394,11.917-3.923,17.977-5.555c1.383-0.373,1.472-1.823,1.993-2.812
			c1.675-3.181,3.986-5.746,7.154-7.352c7.455-3.78,14.735-3.083,21.872,1.089c4.188,2.448,6.308,6.376,8.304,10.523
			c1.975,4.102,1.765,8.279,1.055,12.587c-1.239,7.515-4.224,14.42-7.604,21.117c-1.918,3.8-4.725,7.154-7.09,10.72
			c-3.662,5.521-7.615,10.866-10.668,16.814c-2.295,4.472-4.284,8.976-5.111,13.929c-0.582,3.487,0.152,6.955,0.433,10.427
			c0.19,2.354,0.544,4.6,1.793,6.714c1.843,3.119,5.407,3.325,7.326,0.239c4.241-6.819,10.239-11.53,17.309-15.208
			c4.198-2.185,8.603-3.273,13.138-4.205c4.049-0.833,8.033-0.196,12.063,0.141c3.452,0.289,6.829,0.836,9.996,2.149
			c5.676,2.354,10.675,5.603,14.608,10.555c2.829,3.563,5.761,7.056,8.402,10.758c2.963,4.154,6.113,8.245,7.905,13.089
			C136.376,129.39,137.014,133.564,137.214,137.836z M144.502,124.275c-3.312-2.411-6.463-5.157-10.775-5.683
			c-0.567-0.069-0.681-0.578-0.896-0.97c-2.254-4.122-5.313-7.68-7.977-11.515c-1.361-1.962-3.206-3.531-4.737-6.148
			c13.105,6.488,21.581,16.83,29.004,28.262C147.791,126.662,146.137,125.465,144.502,124.275z"/>
	</g>
</g>
</svg>
